Patient5_TMGait_0pt45_1_left_14_EMG.mot
version=1
nRows=32
nColumns=33
inDegrees=no
endheader
time	1LAddLong	2LGlutMax	3LGlutMed	4LIliopsoas	5LSemiMemb	6LBicFemLong	7LRecFem	8LTensFascLat	9LVastMed	10LVasLat	11LGasMed	12lGasLat	13LTibAnt	14LPeroneusLong	15LSol	16LTibPost	17RAddLong	18RGlutMax	19RGlutMed	20RIliopsoas	21RSemiMemb	22RBicFemLong	23RRecFem	24RTensFascLat	25RVastMed	26RVasLat	27RGasMed	28RGasLat	29RTibAnt	30RPeroneusLong	31RSol	32RTibPost
23.08	0.019379	-0.000305	0.052795	0.002747	0.02594	0.12192	-0.00412	0.25894	0.016785	0.006104	0.078125	0.047302	-0.012665	0.039825	0.032043	-0.048523	0.041809	-0.003052	-0.041656	0.007782	0.001068	0.005341	0.009613	0.025635	-0.007935	-0.001373	-0.00061	-0.01709	0.003967	0.013428	-0.009308	-0.011902
23.081	0.00885	-0.004425	0.084534	-0.006104	0.014496	0.026093	0.005035	0.27557	0.014648	-0.002289	0.14694	0.069733	-0.015411	0.053406	0.039215	0.073853	0.036469	0.000153	-0.035248	-0.10422	0.01297	-0.000916	0.002747	0.02182	-0.003967	-0.005493	-0.002136	-0.03067	0.005035	0.001068	-0.025482	-0.008392
23.082	0.021667	-0.000153	0.061798	0.010681	-0.05127	-0.090332	0.005493	0.11734	0.011749	-0.02594	0.10254	0.07782	0.002899	0.036469	0.063324	0.11948	0.030975	-0.001678	0.010223	0.023041	0.024719	0.007629	-0.003357	-0.007019	-0.014343	-0.011292	-0.000916	-0.02121	0.006866	0.005188	-0.027161	0.001068
23.083	-0.001373	-0.007477	0.054474	0.018463	-0.032806	-0.23666	0.010376	0.050659	0.008698	-0.019836	-0.073853	0.060272	0.005646	0.020447	0.016022	0.16632	0.020905	0.000153	-0.018005	0.001831	0.036926	0.00946	0.001373	-0.003357	-0.009613	-0.014343	0.00473	-0.009918	0.02121	0.009003	-0.020905	0.001678
23.084	0.01297	0.001678	-0.022888	0.023193	-0.060425	-0.16098	0.00885	-0.02655	0.006866	-0.01358	-0.37628	-0.031738	0.01709	0.016632	-0.033569	-0.002441	0.010071	-0.002441	-0.005188	-0.014343	0.029755	0.006409	0.002289	-0.011902	-0.019684	-0.013123	0.008545	-0.005035	0.014648	-0.000458	-0.018311	-0.019531
23.085	0.005798	0.010376	-0.12192	0.027618	-0.063782	0.025177	0.02243	-0.11581	-0.002747	0.002899	-0.12466	-0.11154	0.012054	-0.011139	-0.044403	-0.076447	0.010834	-0.012207	-0.020294	-0.25681	0.012512	0.002594	-0.002289	-0.015564	-0.012665	-0.011597	0.005798	-0.001831	-0.003967	-0.018768	-0.026245	-0.010681
23.086	0.021515	0.012817	-0.17532	0.014801	0.005493	0.036774	0.016022	-0.13016	-0.015259	0.011292	0.21484	-0.039368	0.000153	0.006104	-0.05661	0.10834	0.004425	-0.00885	0.032654	-0.11215	0.013275	0.00412	-0.006561	-0.015411	-0.014801	-0.019836	0.005341	-0.002594	-0.02243	-0.022583	-0.023956	-0.018921
23.087	-0.12451	0.010529	-0.052643	0.005646	0.026245	-0.023651	0.011444	-0.062714	-0.011902	-0.003052	0.27588	0.03952	-0.008392	0.004425	-0.0177	0.094299	-0.002289	-0.010681	0.067139	-0.00061	0.022278	0.003662	-0.001678	-0.027466	-0.016785	-0.016937	0.000916	0.00351	-0.029297	-0.030823	-0.005035	-0.011292
23.088	-0.071411	0.019379	-0.066071	-0.006561	-0.053864	-0.10468	-0.001678	-0.03479	0.02655	-0.030823	0.14923	0.019989	-0.009766	-0.000458	0.018768	-0.02655	-0.007172	-0.009003	0.072937	0.023804	0.044098	0.003815	-0.001068	-0.049438	-0.011902	-0.000763	0.000458	-0.002747	-0.020599	-0.024261	0.028076	-0.011444
23.089	-0.040283	0.014343	-0.11764	-0.012665	-0.069427	-0.17609	-0.005951	-0.049744	0.041504	-0.031433	0.036163	0.020447	-0.009766	0.013275	0.042114	-0.033417	-0.008392	-0.00946	0.053558	-0.081635	0.072632	0.005798	-0.001373	-0.037384	-0.009613	-0.001373	0.003662	0.002594	-0.015259	-0.019379	0.023956	-0.006561
23.09	-0.036316	0.007324	-0.10727	-0.010681	-0.030518	-0.11246	-0.013123	-0.13657	0.046692	0.018005	0.026245	0.013428	-0.001373	0.006866	0.089569	0.097961	-0.008392	0.003815	0.061188	-0.028229	0.078278	0.003357	-0.002441	-0.060577	-0.006561	-0.001373	0.00412	-0.003967	0.019684	-0.012054	0.010529	-0.00351
23.091	-0.40146	0.011139	-0.017548	-0.011444	-0.03006	-0.019836	-0.007324	-0.17792	0.053558	0.042725	0.076141	-0.002136	-0.009003	0.014496	0.07019	-0.063934	-0.005188	0.000305	0.022278	0.060577	0.064087	0.002899	-0.014191	-0.038147	-0.018768	-0.008392	0.005951	-0.019531	0.076904	0.008698	-0.000916	-0.002594
23.092	-0.19409	0.007172	-0.017395	-0.00946	-0.031433	0.028381	-0.008087	-0.12253	0.031891	0.012512	0.11353	0.001984	-0.008545	0.00473	0.001068	-0.11002	-0.007019	-0.00351	-0.019989	0.012054	0.052795	0.009308	-0.007782	-0.03006	-0.025482	-0.005035	0.003815	-0.023346	0.032196	0.012512	-0.003662	0.000153
23.093	-0.10376	0.003967	0.016785	-0.002747	-0.013733	0.046844	-0.006104	-0.075378	0.005341	-0.032196	0.031128	0.011444	-0.010376	0.002441	-0.023346	0.10574	-0.014648	0.000458	-0.023956	0.079498	0.007629	0.011597	-0.005188	-0.032654	-0.015106	-0.010834	0.007629	-0.023346	-0.019073	0.014343	-0.007935	-0.001831
23.094	-0.05722	-0.005646	0.031738	0.012512	0.010071	0.083923	-0.001831	-0.087128	-0.009613	-0.02243	-0.02594	0.013733	-0.006714	0.000305	-0.064087	0.11276	-0.011139	-0.004425	-0.00473	0.10757	0.040436	0.006409	-0.005646	-0.054169	-0.008087	-0.008698	0.00351	-0.009613	-0.019226	0.010376	-0.015717	0.00061
23.095	-0.034332	-0.003052	0.033264	0.014343	0.010986	0.075073	-0.004425	0.09079	-0.049896	0.002441	-0.028076	0.006561	-0.007629	-0.00351	-0.074768	0.12909	-0.014801	-0.003967	0.036163	-0.066376	0.063324	0.010529	-0.009308	-0.038605	-0.014648	-0.017853	0.004425	0.001831	-0.009003	0.01709	-0.01297	-0.003967
23.096	-0.005341	-0.007477	0.097809	-0.012054	0.021667	0.073547	0.003815	0.14557	-0.084991	0.03418	-0.02533	0.009308	-0.000916	-0.001678	-0.048065	0.022736	-0.017242	-0.006256	0.052032	0.063782	0.058899	0.001373	-0.007477	-0.025635	-0.017395	-0.017395	0.008392	-0.011749	0.005646	0.02533	-0.003662	-0.001984
23.097	-0.007935	-0.015411	0.052948	-0.053864	0.045471	0.06485	0.012512	0.039673	-0.10681	0.036469	-0.083313	0.019989	-0.009918	0.00351	0.035706	-0.043182	-0.018005	-0.003815	0.019226	0.10941	0.07309	0.008392	-0.005951	-0.061493	-0.014343	-0.006714	0.001221	-0.004883	0.013733	0.026398	0	-0.00824
23.098	0.009155	-0.000763	-0.10147	-0.063477	0.045319	0.09079	0.014648	-0.07309	-0.080566	0.044861	-0.072174	0.030212	-0.014191	0.017242	0.066376	-0.23743	-0.010681	-0.002136	0.093079	0.002747	0.046387	-0.010834	-0.012665	-0.056458	-0.01709	-0.011749	0.001526	-0.015564	0.028534	0.016479	0.000458	-0.001526
23.099	0.03891	0.004272	-0.1828	-0.047607	0.037842	0.097046	0.00885	-0.159	-0.058746	0.046387	-0.11124	0.032501	-0.005188	0.026703	0.056763	-0.066833	-0.019226	-0.002747	0.086212	-0.020905	0.048065	0.003204	-0.014343	-0.049591	-0.003967	-0.002136	0.000763	-0.022125	0.034943	0.005341	0.003052	-0.009155
23.1	0.023346	-0.001984	-0.15518	-0.03479	0.032043	0.10254	0.016327	-0.072632	-0.045624	0.042114	-0.045166	0.022583	0.003815	0.038605	0.031891	-0.15595	-0.017853	-0.005493	0.096436	-0.04425	0.023041	0.00351	-0.013428	-0.030518	0.000305	-0.006866	-0.00351	-0.01297	0.015106	-0.003357	0.000458	-0.00473
23.101	0.006104	-0.000153	-0.10361	-0.023346	0.025635	0.098419	0.01236	-0.082855	-0.029602	0.032196	0.11185	0.016937	0.016174	0.028381	-0.013733	-0.037537	-0.022278	-0.001068	0.084076	-0.18036	-0.016327	0.002136	-0.006561	-0.048981	-0.004578	-0.003815	-0.003815	-0.012512	0.00885	-0.005341	0.006409	-0.002747
23.102	0.010376	0	-0.002594	0.000305	0.015717	0.10635	0.012207	0.005188	-0.022583	0.027313	0.075989	0.006866	0.00824	0.002594	0.002441	0.086975	-0.018005	-0.001221	0.075378	-0.03418	-0.037842	0.002289	-0.00824	-0.037384	-0.009003	-0.017853	0.002441	-0.00351	0.001068	0.000153	0.00885	-0.003357
23.103	0.005341	-0.009308	0.12634	0.002441	0.003967	0.049744	-0.003204	0.14343	-0.018158	0.008698	0.014648	0.007782	0.003662	0.019836	0.000153	-0.18005	-0.015869	0.002594	0.035858	-0.037689	-0.053253	-0.008698	-0.00351	-0.035706	-0.003815	-0.00885	0.009003	0.003204	-0.001984	0.005951	0.002136	0.004883
23.104	-0.11871	-0.009918	0.077972	0.010529	-0.003052	0.026855	-0.003815	-0.049438	0.003204	-0.014954	0.019073	0.009766	-0.012665	-0.025787	-0.006866	-0.034027	-0.012817	0.00061	-0.004578	0.010834	-0.067139	-0.000153	-0.001831	-0.052948	0.001373	-0.013885	0.017548	0.00412	-0.007172	0.006409	-0.000305	-0.003815
23.105	-0.06546	-0.013733	0.03006	0.006866	-0.005493	-0.010071	-0.007477	-0.1767	0.036621	0.011597	0.024567	0.018005	-0.020599	-0.05127	0.025787	0.021667	-0.013123	-0.000458	0.033875	0.10407	-0.04837	-0.006409	0.006714	-0.023804	0.000458	-0.01236	0.014496	0.001068	0.001526	0.013123	-0.007019	-0.006409
23.106	0.003357	-0.010681	-0.047607	-0.012665	0.01297	-0.026093	-0.005493	-0.242	0.038147	0.02655	0.009918	0.016174	-0.008698	-0.016937	-0.00473	0.10178	-0.011597	0.008545	0.054016	0.074921	-0.027313	-0.003815	0.010376	-0.050964	-0.001526	-0.005493	0.009003	-0.023956	-0.001526	0.017853	-0.009613	-0.003967
23.107	0.028687	-0.013275	-0.21027	0.001678	0.018311	-0.063629	-0.005035	-0.25833	0.03006	0.013275	0.004425	0.019073	0.003204	0.010223	-0.021057	0.11536	-0.006256	-0.009003	0.078583	0.01709	-0.023499	0.002136	0.00824	-0.048981	-0.003662	0.002594	0.012512	-0.017242	-0.01297	0.006256	0.009155	-0.005798
23.108	0.012512	-0.013123	-0.2652	0.010529	0.009003	-0.085602	0.00351	-0.15961	0.007935	0.024567	0.007629	0.041962	0.003815	0.039063	-0.003204	0.07019	-0.006714	-0.001526	0.048065	0.121	-0.005341	-0.002747	0.003815	-0.039978	-0.03067	-0.00061	0.005188	0.004578	-0.041656	0.00412	0.024872	-0.007629
23.109	0.023193	-0.002899	-0.20523	0.009766	0.002136	-0.10849	0.001678	0.06958	0.002594	0.034637	-0.029297	0.031281	0.018005	0.078278	0.003967	0.093842	-0.005951	0.000458	0.020142	-0.092468	0.017395	-0.005035	-0.001678	-0.036316	-0.033722	-0.003204	-0.015259	0.003662	-0.046387	0.00061	0.036621	0.000458
23.11	-0.007782	-0.001678	-0.10468	-0.00473	0.005035	-0.09552	0.008392	0.16327	0.002899	-0.007782	-0.051727	0.055237	0.026855	0.025787	-0.014801	-0.030365	-0.006104	0.000153	-0.01236	0.103	0.007324	0.001984	-0.002289	-0.034943	-0.011597	-0.012207	-0.019989	0.004425	-0.042725	-0.000916	0.04303	-0.002289
23.111	-0.020599	0.010681	-0.029297	-0.020752	0.01709	0.029449	0.014801	0.086823	-0.018311	-0.067596	-0.023041	0.033417	0.022125	-0.17822	-0.066986	-0.007782	-0.003357	-0.00946	-0.021057	-0.029755	-0.005341	-0.002594	-0.001678	-0.018768	-0.00824	-0.003052	-0.013733	-0.001526	-0.035553	-0.019989	0.050812	-0.002747
